<svg width="25" height="11" viewBox="0 0 25 11" fill="none" xmlns="http://www.w3.org/2000/svg">
<path d="M7.364 4.38201C7.38267 4.69001 7.378 5.00734 7.35 5.33401C7.33134 5.66068 7.29867 5.97801 7.252 6.28601C7.15867 6.81801 6.986 7.33601 6.734 7.84001C6.482 8.34401 6.11334 8.77334 5.628 9.12801C5.124 9.50134 4.55 9.75801 3.906 9.89801C3.262 10.0287 2.62267 10.108 1.988 10.136C1.77334 10.1547 1.554 10.1593 1.33 10.15C1.11534 10.15 0.905336 10.1267 0.700002 10.08C0.532002 10.052 0.406002 10.0007 0.322002 9.92601C0.275336 9.89801 0.238002 9.86068 0.210002 9.81401C0.182002 9.76734 0.158669 9.72068 0.140002 9.67401C0.112002 9.62734 0.0886691 9.58068 0.0700025 9.53401C0.0606691 9.47801 0.0466692 9.42201 0.0280025 9.36601C0.0186691 9.31934 0.0093358 9.27734 2.48104e-06 9.24001C2.48104e-06 9.19334 2.48104e-06 9.15134 2.48104e-06 9.11401V1.12001C2.48104e-06 1.05468 2.48104e-06 0.99401 2.48104e-06 0.93801C2.48104e-06 0.882009 0.00933582 0.826009 0.0280025 0.770009C0.0466692 0.639343 0.0746691 0.532009 0.112002 0.448009C0.149336 0.336009 0.200669 0.256676 0.266002 0.210009C0.322003 0.163342 0.378002 0.130676 0.434002 0.11201C0.490003 0.0840093 0.541336 0.060676 0.588002 0.0420096C0.644003 0.0233426 0.700003 0.0233426 0.756003 0.0420096C0.821336 0.0513428 0.891336 0.0373427 0.966003 9.29832e-06L3.304 0.0560094C3.92 0.0746758 4.47067 0.219343 4.956 0.49001C5.44134 0.751343 5.85667 1.08734 6.202 1.49801C6.54734 1.90868 6.818 2.37068 7.014 2.88401C7.21 3.38801 7.32667 3.88734 7.364 4.38201ZM4.76 7.04201C4.93734 6.76201 5.068 6.44001 5.152 6.07601C5.236 5.71201 5.27334 5.34334 5.264 4.97001C5.25467 4.58734 5.20334 4.21868 5.11 3.86401C5.01667 3.50001 4.886 3.17801 4.718 2.89801C4.58734 2.69268 4.41934 2.52468 4.214 2.39401C4.00867 2.26334 3.78 2.16534 3.528 2.10001C3.276 2.02534 3.00534 1.97401 2.716 1.94601C2.436 1.91801 2.16067 1.90401 1.89 1.90401C1.89934 2.17468 1.904 2.43601 1.904 2.68801C1.904 2.94001 1.904 3.20601 1.904 3.48601C1.89467 3.82201 1.89 4.14868 1.89 4.46601C1.89 4.78334 1.89 5.09134 1.89 5.39001V8.24601C2.17934 8.23668 2.45467 8.22268 2.716 8.20401C2.98667 8.17601 3.24334 8.12001 3.486 8.03601C3.738 7.95201 3.96667 7.83534 4.172 7.68601C4.38667 7.52734 4.58267 7.31268 4.76 7.04201ZM13.3616 8.09201C13.4736 8.06401 13.5856 8.04534 13.6976 8.03601C13.8189 8.02668 13.9262 8.04068 14.0196 8.07801C14.1222 8.11534 14.2062 8.18068 14.2716 8.27401C14.3369 8.35801 14.3696 8.47934 14.3696 8.63801C14.3696 8.75001 14.3416 8.85734 14.2856 8.96001C14.2296 9.06268 14.1596 9.15601 14.0756 9.24001C13.9916 9.32401 13.8982 9.39868 13.7956 9.46401C13.6929 9.52001 13.5949 9.56668 13.5016 9.60401C13.2309 9.72534 12.9182 9.81868 12.5636 9.88401C12.2182 9.94934 11.8589 9.97268 11.4856 9.95401C10.9816 9.93534 10.4962 9.83734 10.0296 9.66001C9.57225 9.47334 9.21291 9.17001 8.95158 8.75001C8.70891 8.33934 8.56425 7.88201 8.51758 7.37801C8.47091 6.87401 8.49425 6.39801 8.58758 5.95001C8.69025 5.40868 8.86291 4.97001 9.10558 4.63401C9.35758 4.28868 9.65625 4.01334 10.0016 3.80801C10.4216 3.56534 10.8929 3.43934 11.4156 3.43001C11.9382 3.42068 12.4376 3.52334 12.9136 3.73801C13.2309 3.87801 13.5156 4.06934 13.7676 4.31201C14.0196 4.54534 14.2109 4.83001 14.3416 5.16601C14.3789 5.25001 14.4069 5.35268 14.4256 5.47401C14.4536 5.59534 14.4722 5.72601 14.4816 5.86601C14.4909 5.99668 14.4909 6.12734 14.4816 6.25801C14.4722 6.38868 14.4489 6.50534 14.4116 6.60801C14.3556 6.77601 14.2856 6.90668 14.2016 7.00001C14.1176 7.09334 14.0102 7.16334 13.8796 7.21001C13.7489 7.25668 13.5902 7.28934 13.4036 7.30801C13.2262 7.31734 13.0116 7.32668 12.7596 7.33601C12.5356 7.34534 12.3256 7.35001 12.1296 7.35001C11.9336 7.35001 11.7329 7.35001 11.5276 7.35001C11.3222 7.34068 11.1076 7.33601 10.8836 7.33601C10.6689 7.32668 10.4262 7.31734 10.1556 7.30801C10.1276 7.49468 10.1509 7.65801 10.2256 7.79801C10.3096 7.92868 10.4216 8.04068 10.5616 8.13401C10.7016 8.21801 10.8602 8.28334 11.0376 8.33001C11.2149 8.37668 11.3876 8.40468 11.5556 8.41401C11.8729 8.43268 12.1762 8.40934 12.4656 8.34401C12.7549 8.26934 13.0536 8.18534 13.3616 8.09201ZM12.7596 5.37601C12.5822 5.17068 12.3956 5.02134 12.1996 4.92801C12.0502 4.86268 11.8916 4.83468 11.7236 4.84401C11.5649 4.84401 11.4109 4.86734 11.2616 4.91401C10.9909 4.97934 10.7622 5.11934 10.5756 5.33401C10.5569 5.35268 10.5242 5.39934 10.4776 5.47401C10.4309 5.53934 10.3842 5.60934 10.3376 5.68401C10.3002 5.75868 10.2722 5.82868 10.2536 5.89401C10.2349 5.95934 10.2442 5.99201 10.2816 5.99201H13.0256C13.0162 5.86134 12.9929 5.75401 12.9556 5.67001C12.9182 5.57668 12.8529 5.47868 12.7596 5.37601ZM21.8433 3.87801C21.8806 3.99001 21.89 4.11601 21.8713 4.25601C21.8526 4.39601 21.82 4.54068 21.7733 4.69001C21.7266 4.83001 21.6706 4.97001 21.6053 5.11001C21.5493 5.24068 21.498 5.35734 21.4513 5.46001C21.2086 5.95468 20.98 6.44001 20.7653 6.91601C20.5506 7.39201 20.2986 7.91001 20.0093 8.47001C19.9533 8.58201 19.888 8.71734 19.8133 8.87601C19.748 9.02534 19.6733 9.17468 19.5893 9.32401C19.5053 9.46401 19.412 9.59468 19.3093 9.71601C19.216 9.83734 19.1133 9.92601 19.0013 9.98201C18.908 10.038 18.8146 10.0613 18.7213 10.052C18.6466 10.0707 18.5626 10.0473 18.4693 9.98201C18.3573 9.92601 18.25 9.83734 18.1473 9.71601C18.054 9.59468 17.9653 9.46401 17.8813 9.32401C17.7973 9.17468 17.718 9.02534 17.6433 8.87601C17.578 8.71734 17.5173 8.58201 17.4613 8.47001C17.3493 8.25534 17.242 8.05468 17.1393 7.86801C17.046 7.68134 16.9433 7.48068 16.8313 7.26601C16.7286 7.04201 16.612 6.79001 16.4813 6.51001C16.3506 6.22068 16.1966 5.87068 16.0193 5.46001C15.9726 5.34801 15.9213 5.23134 15.8653 5.11001C15.8093 4.98868 15.758 4.85801 15.7113 4.71801C15.674 4.57801 15.646 4.43801 15.6273 4.29801C15.618 4.14868 15.6273 3.99934 15.6553 3.85001C15.6833 3.71001 15.7533 3.59801 15.8653 3.51401C15.9773 3.43001 16.1033 3.37401 16.2433 3.34601C16.3833 3.31801 16.5233 3.32268 16.6633 3.36001C16.8033 3.38801 16.9153 3.44868 16.9993 3.54201C17.0833 3.62601 17.1626 3.73801 17.2373 3.87801C17.312 4.01801 17.382 4.16734 17.4473 4.32601C17.522 4.47534 17.5873 4.62934 17.6433 4.78801C17.7086 4.93734 17.7693 5.06801 17.8253 5.18001C17.956 5.45068 18.1006 5.74468 18.2593 6.06201C18.4273 6.37934 18.5766 6.67334 18.7073 6.94401C18.8006 6.72934 18.8846 6.55201 18.9593 6.41201C19.034 6.26268 19.104 6.11801 19.1693 5.97801C19.244 5.83801 19.3186 5.68401 19.3933 5.51601C19.4773 5.34801 19.58 5.13334 19.7013 4.87201C19.8133 4.62934 19.9253 4.39134 20.0373 4.15801C20.1586 3.92468 20.3033 3.71934 20.4713 3.54201C20.5553 3.44868 20.6626 3.38801 20.7933 3.36001C20.924 3.32268 21.0593 3.31801 21.1993 3.34601C21.3393 3.37401 21.4653 3.43468 21.5773 3.52801C21.6986 3.61201 21.7873 3.72868 21.8433 3.87801ZM24.7318 10.01C24.7318 10.2527 24.6431 10.458 24.4658 10.626C24.2978 10.8033 24.0924 10.892 23.8498 10.892C23.6071 10.892 23.3971 10.8033 23.2198 10.626C23.0518 10.458 22.9678 10.2527 22.9678 10.01C22.9678 9.76734 23.0518 9.55734 23.2198 9.38001C23.3971 9.20268 23.6071 9.11401 23.8498 9.11401C24.0924 9.11401 24.2978 9.20268 24.4658 9.38001C24.6431 9.55734 24.7318 9.76734 24.7318 10.01Z" fill="white"/>
</svg>
